<?xml version="1.0" ?><svg id="Layer_1" style="enable-background:new 0 0 91 91;" version="1.1" viewBox="0 0 91 91" xml:space="preserve" xmlns="http://www.w3.org/2000/svg" xmlns:xlink="http://www.w3.org/1999/xlink"><style type="text/css">
	.st0{fill:#4E7A9E;}
</style><g><g><path class="st0" d="M25.6,31.7c2.1,2.1,4.2,4.2,6.2,6.5c3,3.4,8.4-2.1,5-5c-3.2-2.7-6.1-5.7-9.2-8.5c-1.5-1.5-3.8-1.1-5,0.6    c-2.5,3.8-5.4,7-8.8,10c-1.7,1.4,0.1,4.6,2.2,3.8C19.8,37.6,23,34.8,25.6,31.7z"/><path class="st0" d="M67.4,24.7c-1.5-1.5-3.8-1.1-5,0.6c-2.5,3.8-5.4,7-8.8,10c-1.7,1.4,0.1,4.6,2.2,3.8c3.8-1.5,6.9-4.3,9.6-7.4    c2.1,2.1,4.2,4.2,6.2,6.5c3,3.4,8.4-2.1,5-5C73.3,30.5,70.4,27.5,67.4,24.7z"/><path class="st0" d="M67.5,57.2c-3.7,1.6-6.9,3.8-10.9,4.9c-4,1.1-8.1,1.6-12.2,1.5c-8,0-15-3.2-22.3-6c-0.8-0.3-1.6,0.8-1.1,1.4    c1.3,1.6,2.4,3.2,4.1,4.4c1.9,1.3,4,2.2,6.1,3.1c4.2,1.7,8.7,2.6,13.2,2.9c4.6,0.3,9.4-0.3,13.8-1.5c4.3-1.2,9.6-2.9,12.8-6.2    C73.4,59.3,70.4,56,67.5,57.2z"/></g></g></svg>