<?xml version="1.0" ?><svg id="Layer_1" style="enable-background:new 0 0 91 91;" version="1.1" viewBox="0 0 91 91" xml:space="preserve" xmlns="http://www.w3.org/2000/svg" xmlns:xlink="http://www.w3.org/1999/xlink"><style type="text/css">
	.st0{fill:#4E7A9E;}
</style><g><g><path class="st0" d="M73.5,49.9c0.1-1.2-1.2-2.3-2.3-2.3c-9,0.1-18.1,0-27.1,0.2c-4.5,0.1-9,0.2-13.6,0.4c-4.2,0.2-8.7,0-12.7,1.3    c-1.3,0.4-1.4,2.4,0,2.8c0.3,0.1,0.6,0.1,0.9,0.2c-0.4,0.5-0.6,1-0.6,1.8c-0.1,4.5-0.6,8.9-1.5,13.3c-0.3,1.4,0.4,3.4,2.1,3.7    C36,74,53.7,73.6,71.2,71.4c1.3-0.2,2.8-1.1,2.7-2.7C73.5,62.6,72.8,56.1,73.5,49.9z M68.5,66.4c-3.5,0.3-7.1,0.5-10.6,0.7    c0.5-4.6-0.1-9.7-0.6-14.4c3.8-0.1,7.6-0.3,11.4-0.4C68.3,57,68.4,61.7,68.5,66.4z M30.5,53.2c1.5,0,2.9,0,4.4,0    c0.3,4.7,0.1,9.1-0.5,13.8c-3.9-0.2-7.7-0.6-11.5-1.1c0.6-3.8,1-7.7,1-11.6c0-0.5-0.1-0.9-0.2-1.2C25.9,53.2,28.2,53.1,30.5,53.2z     M40.1,67.3c0.7-4.6,0.4-9.6-0.9-14.1c1.6,0,3.2,0,4.8-0.1c3.2,0,6.3-0.1,9.5-0.2c-0.5,4.7-1.1,9.8-0.6,14.4    C48.6,67.4,44.3,67.4,40.1,67.3z"/><path class="st0" d="M17.4,33.5c3.8-1.5,6.9-4.3,9.6-7.4c2.1,2.1,4.2,4.2,6.2,6.5c3,3.4,8.4-2.1,5-5C35,24.9,32,21.9,29,19.1    c-1.5-1.5-3.8-1.1-5,0.6c-2.5,3.8-5.4,7-8.8,10C13.5,31.1,15.3,34.3,17.4,33.5z"/><path class="st0" d="M76.2,27.6c-3.2-2.7-6.1-5.7-9.2-8.5c-1.5-1.5-3.8-1.1-5,0.6c-2.5,3.8-5.4,7-8.8,10c-1.7,1.4,0.1,4.6,2.2,3.8    c3.8-1.5,6.9-4.3,9.6-7.4c2.1,2.1,4.2,4.2,6.2,6.5C74.3,36,79.7,30.5,76.2,27.6z"/></g></g></svg>